<?xml version="1.0" standalone="no"?>
<!DOCTYPE svg PUBLIC "-//W3C//DTD SVG 20010904//EN"
 "http://www.w3.org/TR/2001/REC-SVG-20010904/DTD/svg10.dtd">
<svg version="1.0" xmlns="http://www.w3.org/2000/svg"
 width="212.000000pt" height="238.000000pt" viewBox="0 0 212.000000 238.000000"
 preserveAspectRatio="xMidYMid meet">
<metadata>
Created by potrace 1.16, written by Peter Selinger 2001-2019
</metadata>
<g transform="translate(0.000000,238.000000) scale(0.100000,-0.100000)"
fill="#000000" stroke="none">
<path d="M0 1049 c0 -404 2 -426 54 -484 40 -45 903 -542 966 -557 32 -7 57
-7 85 1 40 10 911 506 948 539 11 9 30 40 43 67 23 48 24 59 24 291 0 266 1
260 -61 247 -17 -3 -46 -21 -65 -40 -75 -75 -107 -188 -103 -364 3 -129 -4
-152 -50 -147 l-26 3 0 145 c0 136 -2 149 -27 202 -39 84 -87 113 -188 113
-67 0 -82 -4 -118 -27 -24 -17 -61 -58 -89 -100 -58 -89 -107 -119 -157 -98
-60 24 -102 33 -128 27 -40 -11 -86 -54 -93 -90 -8 -35 -31 -67 -50 -67 -26 0
-38 34 -46 126 -13 153 -72 250 -187 306 -62 29 -162 29 -249 -1 -116 -40
-147 -28 -252 96 -58 68 -90 95 -188 157 l-43 26 0 -371z"/>
</g>
</svg>
